<?xml version="1.0" encoding="iso-8859-1"?>
<!-- Generator: Adobe Illustrator 18.0.0, SVG Export Plug-In . SVG Version: 6.00 Build 0)  -->
<!DOCTYPE svg PUBLIC "-//W3C//DTD SVG 1.1//EN" "http://www.w3.org/Graphics/SVG/1.1/DTD/svg11.dtd">
<svg version="1.1" id="Capa_1" xmlns="http://www.w3.org/2000/svg" xmlns:xlink="http://www.w3.org/1999/xlink" x="0px" y="0px"
	 viewBox="0 0 372.243 372.243" style="enable-background:new 0 0 372.243 372.243;" xml:space="preserve">
<g>
	<g>
		<path style="fill:#FDD44B;" d="M57.1,179.661c0.024-0.014,0.047-0.028,0.071-0.042C57.148,179.633,57.124,179.647,57.1,179.661z"
			/>
		<path style="fill:#FDD44B;" d="M58.131,179.05c3.544-2.086,8.162-4.689,9.074-5.217l-37.279-96.24
			c-1.076-0.107-2.189,0.024-3.263,0.44c-1.777,0.689-3.179,2.026-3.949,3.768c-0.769,1.742-0.814,3.68-0.127,5.454l35.555,91.789
			C58.138,179.046,58.135,179.048,58.131,179.05z"/>
		<path style="fill:#FDD44B;" d="M56.163,180.225c0.042-0.025,0.087-0.053,0.13-0.079C56.25,180.172,56.206,180.199,56.163,180.225z
			"/>
		<path style="fill:#FDD44B;" d="M55.36,180.719c0.061-0.038,0.133-0.082,0.197-0.122C55.493,180.638,55.422,180.681,55.36,180.719z
			"/>
	</g>
	<g>
		<path style="fill:#FDD44B;" d="M356.59,74.45c0.203,0.46,0.35,0.934,0.45,1.414C356.939,75.384,356.793,74.91,356.59,74.45z"/>
		<path style="fill:#FDD44B;" d="M357.075,76.144c0.065,0.391,0.113,0.784,0.113,1.178
			C357.187,76.927,357.141,76.535,357.075,76.144z"/>
		<path style="fill:#FDD44B;" d="M305.933,174.343c-0.042-0.024-0.087-0.05-0.127-0.072
			C305.846,174.293,305.891,174.319,305.933,174.343z"/>
		<path style="fill:#FDD44B;" d="M305.465,174.076c-0.17-0.097-0.33-0.189-0.426-0.245
			C305.138,173.888,305.289,173.975,305.465,174.076z"/>
		<path style="fill:#FDD44B;" d="M355.002,76.042c-3.667-1.419-7.807,0.405-9.229,4.072l-37.103,95.789
			c3.056,1.745,7.114,4.081,8.842,5.209l39.203-101.205c0.317-0.818,0.46-1.671,0.467-2.522
			C356.55,76.817,355.819,76.358,355.002,76.042z"/>
	</g>
	<g>
		<path style="fill:#84BD93;" d="M268.534,145.14c0.632,0.289,1.196,0.662,1.729,1.081
			C269.731,145.802,269.165,145.429,268.534,145.14z"/>
		<path style="fill:#84BD93;" d="M144.971,153.636c0.003,0.009,0.007,0.017,0.01,0.025
			C144.978,153.652,144.975,153.644,144.971,153.636z"/>
		<path style="fill:#84BD93;" d="M272.203,148.287c0.322,0.444,0.626,0.926,0.916,1.442
			C272.829,149.214,272.524,148.729,272.203,148.287z"/>
		<path style="fill:#84BD93;" d="M271.761,147.718c-0.322-0.392-0.668-0.748-1.028-1.074
			C271.094,146.971,271.438,147.325,271.761,147.718z"/>
		<path style="fill:#84BD93;" d="M273.425,150.259c0.383,0.732,0.746,1.517,1.094,2.382
			C274.171,151.778,273.807,150.991,273.425,150.259z"/>
		<path style="fill:#84BD93;" d="M232.555,155.804c-0.374-0.079-0.748-0.157-1.124-0.221
			C231.806,155.647,232.181,155.725,232.555,155.804z"/>
		<path style="fill:#84BD93;" d="M304.755,191.189c-1.11,0-15.279-8.711-19.527-13.27c-4.426-4.751-6.309-11.206-8.13-17.394
			c-0.889-3.023-1.693-5.65-2.572-7.835c-4.188-0.929-11.28,0.617-17.625,2.019c-6.213,1.373-12.581,2.768-18.765,2.817
			c-0.218-0.092-0.443-0.155-0.662-0.242c2.529,0.996,4.974,2.424,7.25,4.132c9.402,7.063,13.818,19.773,12.015,29.773H304.755z"/>
		<path style="fill:#84BD93;" d="M144.339,151.6c0.016,0.06,0.038,0.116,0.054,0.176C144.377,151.716,144.355,151.659,144.339,151.6
			z"/>
		<path style="fill:#84BD93;" d="M235.64,156.621c-0.387-0.125-0.774-0.242-1.166-0.351
			C234.865,156.379,235.253,156.497,235.64,156.621z"/>
		<path style="fill:#84BD93;" d="M226.185,155.139c-0.222,0-0.445-0.025-0.668-0.02c-5.166-2.22-9.859-5.767-14.434-9.234
			c-6.223-4.714-12.102-9.167-17.585-9.167c-0.733,0-3.409,0.141-4.767,0.312c1.08,2.69,1.692,5.616,1.692,8.687
			c0,12.914-10.507,23.421-23.421,23.421c-8.643,0-16.199-4.713-20.256-11.699c-5.514-0.3-11.141-1.527-16.648-2.746
			c-7.109-1.57-15.162-3.352-19.013-1.591c-4.369,1.997-6.15,7.122-8.564,15.324c-1.821,6.188-3.704,12.701-8.132,17.454
			c-1.631,1.753-3.625,3.311-6.156,5.311h17.458c0.781-5,2.787-9.651,5.94-13.652c4.87-6.182,11.857-10.153,19.672-11.081
			c1.159-0.137,2.333-0.119,3.494-0.119c14.489,0,26.768,9.852,29.056,24.852h56.237l-17.26-13.077
			c-1.594-1.198-2.647-3.037-2.927-5.01c-0.282-1.973,0.233-4.007,1.431-5.602C207.424,159.394,216.752,155.13,226.185,155.139z"/>
		<path style="fill:#84BD93;" d="M228.353,155.206c0.347,0.025,0.693,0.066,1.039,0.102
			C229.045,155.271,228.7,155.23,228.353,155.206z"/>
	</g>
	<path style="fill:#FDD44B;" d="M136.279,181.313c0.472,0.053,0.939,0.129,1.399,0.223c-2.462,0.911-4.641,2.468-6.308,4.583
		c-0.631,0.802-1.154,1.665-1.597,2.558l-8.121,0.963l24.467-2.901C143.757,183.735,140.238,181.721,136.279,181.313z"/>
	<g>
		<path style="fill:#FDD44B;" d="M239.964,178.139c0.237,0.413,0.432,0.846,0.631,1.277
			C240.395,178.986,240.202,178.553,239.964,178.139z"/>
		<path style="fill:#FDD44B;" d="M238.091,175.584c-0.242-0.274-0.464-0.562-0.727-0.822
			C237.626,175.022,237.849,175.31,238.091,175.584z"/>
		<path style="fill:#FDD44B;" d="M238.788,176.377c0.281,0.366,0.519,0.757,0.766,1.143
			C239.306,177.133,239.069,176.743,238.788,176.377z"/>
		<path style="fill:#FDD44B;" d="M240.865,179.978C240.865,179.977,240.865,179.977,240.865,179.978
			c-4.104-3.082-9.223-3.872-13.825-2.604l14.857,11.157C242.358,185.612,241.979,182.657,240.865,179.978z"/>
	</g>
	<g>
		<path style="fill:#CE593F;" d="M169.389,137.717c0.415,0.125,0.821,0.267,1.207,0.452
			C170.209,137.985,169.805,137.842,169.389,137.717z"/>
		<path style="fill:#CE593F;" d="M171.109,138.449c0.368,0.21,0.719,0.442,1.05,0.703
			C171.827,138.89,171.478,138.658,171.109,138.449z"/>
		<path style="fill:#CE593F;" d="M159.524,149.43c-0.099-0.198-0.208-0.39-0.291-0.596
			C159.317,149.041,159.425,149.232,159.524,149.43z"/>
		<path style="fill:#CE593F;" d="M158.93,147.858c-0.047-0.177-0.113-0.347-0.149-0.528
			C158.816,147.512,158.882,147.681,158.93,147.858z"/>
		<path style="fill:#CE593F;" d="M167.004,137.33c0.641,0,1.261,0.087,1.86,0.224C168.264,137.417,167.645,137.33,167.004,137.33z"
			/>
		<path style="fill:#CE593F;" d="M173.513,140.494c-0.29-0.36-0.601-0.696-0.945-1.004
			C172.911,139.797,173.224,140.134,173.513,140.494z"/>
		<path style="fill:#CE593F;" d="M162.68,152.864c-0.236-0.143-0.464-0.299-0.685-0.464
			C162.216,152.567,162.442,152.72,162.68,152.864z"/>
		<path style="fill:#CE593F;" d="M160.37,150.787c-0.148-0.193-0.298-0.384-0.429-0.589
			C160.073,150.404,160.222,150.593,160.37,150.787z"/>
		<path style="fill:#CE593F;" d="M165.593,153.96c-0.302-0.052-0.593-0.134-0.883-0.217
			C165.001,153.827,165.29,153.908,165.593,153.96z"/>
		<path style="fill:#CE593F;" d="M164.077,153.546c-0.274-0.102-0.536-0.225-0.795-0.355
			C163.542,153.321,163.802,153.443,164.077,153.546z"/>
		<path style="fill:#CE593F;" d="M173.688,140.706c-0.403-0.06-0.811-0.103-1.23-0.103c-4.624,0-8.386,3.763-8.386,8.386
			c0,1.868,0.624,3.589,1.662,4.985c0.418,0.064,0.836,0.129,1.272,0.129c4.624,0,8.386-3.762,8.386-8.386
			C175.391,143.831,174.742,142.108,173.688,140.706z"/>
		<path style="fill:#CE593F;" d="M160.873,151.395c0.177,0.191,0.366,0.367,0.56,0.542
			C161.239,151.763,161.049,151.586,160.873,151.395z"/>
	</g>
	<g>
		<path style="fill:#EF8829;" d="M59.372,257.452c-0.627-1.294-1.218-2.627-1.798-3.973
			C58.154,254.825,58.745,256.158,59.372,257.452z"/>
		<path style="fill:#EF8829;" d="M62.297,262.986c-0.658-1.15-1.289-2.329-1.904-3.525C61.008,260.657,61.64,261.836,62.297,262.986
			z"/>
		<path style="fill:#EF8829;" d="M70.273,274.617c2.532,3.073,5.264,5.916,8.2,8.525C75.537,280.533,72.805,277.689,70.273,274.617z
			"/>
		<path style="fill:#EF8829;" d="M56.771,251.637c-0.81-1.985-1.58-4.014-2.291-6.108C55.192,247.624,55.962,249.652,56.771,251.637
			z"/>
		<path style="fill:#EF8829;" d="M65.58,268.27c-0.741-1.102-1.463-2.226-2.16-3.377C64.117,266.045,64.839,267.168,65.58,268.27z"
			/>
		<path style="fill:#EF8829;" d="M323.324,219.189H62.93c0.137,11,1.252,24.592,6.64,40.456
			c3.436,10.119,8.033,19.987,13.753,27.545c9.481,7.112,20.75,12.999,33.816,15.999h137.966c31.296-8,52.422-26.52,62.805-57.526
			c3.474-10.375,5.13-21.577,5.898-29.598C323.675,217.452,323.516,219.189,323.324,219.189z"/>
		<path style="fill:#EF8829;" d="M324.141,212.602c0.08-1.214,0.142-2.37,0.185-3.449
			C324.282,210.233,324.221,211.386,324.141,212.602z"/>
		<path style="fill:#EF8829;" d="M69.359,273.449c-0.908-1.144-1.797-2.31-2.651-3.516
			C67.562,271.139,68.451,272.304,69.359,273.449z"/>
		<path style="fill:#EF8829;" d="M323.812,216.657c0.13-1.367,0.237-2.675,0.32-3.918
			C324.048,213.983,323.943,215.29,323.812,216.657z"/>
		<path style="fill:#EF8829;" d="M82.971,286.822c-1.294-0.983-2.55-2.011-3.776-3.074
			C80.421,284.811,81.677,285.839,82.971,286.822z"/>
		<path style="fill:#EF8829;" d="M324.331,208.996c0.042-1.071,0.069-2.084,0.083-3.004
			C324.401,206.913,324.374,207.923,324.331,208.996z"/>
	</g>
	<path style="fill:#3F2D20;" d="M370.342,68.378c-2.392-5.417-6.75-9.577-12.268-11.714c-11.397-4.418-24.26,1.265-28.677,12.662
		l-35.98,92.891c-0.677-1.864-1.292-3.944-1.895-5.994c-2.59-8.805-5.814-19.764-16.739-24.755
		c-8.427-3.849-18.633-1.594-28.503,0.587c-7.032,1.554-14.302,3.165-19.486,2.167c-4.127-0.793-8.929-4.43-14.01-8.281
		c-7.559-5.726-16.127-12.217-26.662-12.217c-8.641,0-15.857,4.324-22.011,8.758c-7.362,0.912-13.678,5.252-17.289,11.374
		c-0.472,0.153-0.932,0.28-1.372,0.366c-5.18,0.996-12.452-0.615-19.484-2.169c-9.87-2.181-20.075-4.438-28.502-0.587
		c-10.925,4.992-14.15,15.95-16.741,24.756c-0.603,2.051-1.216,4.13-1.893,5.996L42.844,69.324
		c-4.414-11.397-17.279-17.078-28.673-12.66c-5.52,2.138-9.878,6.298-12.27,11.712c-2.392,5.417-2.531,11.44-0.392,16.96
		l40.913,105.621h-1.96c-3.925,0-7.188,3.019-7.494,6.932c-0.08,1.018-1.846,25.243,7.108,51.976
		c12.11,36.159,37.95,59.346,74.727,67.055c0.507,0.106,1.024,0.158,1.542,0.158h139.552c0.519,0,1.036-0.053,1.542-0.158
		c36.777-7.709,62.617-30.896,74.727-67.055c8.954-26.733,7.188-50.958,7.108-51.976c-0.305-3.913-3.569-6.932-7.494-6.932h-1.96
		l40.913-105.621C372.873,79.816,372.734,73.793,370.342,68.378z M356.715,79.906l-39.203,101.205
		c-2.713-1.769-11.178-6.527-12.474-7.28l38.376-99.075c1.421-3.666,5.562-5.491,9.228-4.072c1.776,0.687,3.177,2.024,3.947,3.767
		C357.359,76.193,357.404,78.131,356.715,79.906z M317.91,245.091c-10.383,31.006-31.509,50.165-62.805,56.954H117.139
		c-31.139-6.756-52.219-25.768-62.658-56.515c-5.387-15.864-6.503-31.057-6.64-39.537h276.575
		C324.288,214.367,323.196,229.309,317.91,245.091z M15.654,74.45c0.769-1.742,2.171-3.079,3.948-3.768
		c3.665-1.419,7.805,0.407,9.224,4.074l38.378,99.077c-1.27,0.736-9.762,5.513-12.472,7.286L15.526,79.904
		C14.839,78.131,14.884,76.193,15.654,74.45z M87.013,177.803c4.428-4.753,6.311-11.15,8.132-17.338
		c2.414-8.202,4.195-13.327,8.565-15.324c3.85-1.76,11.904,0.022,19.012,1.591c7.024,1.554,14.244,3.146,21.173,2.774
		c1.819,11.117,11.487,19.631,23.109,19.631c12.914,0,23.421-10.506,23.421-23.421c0-6.499-2.662-12.386-6.951-16.634
		c0.898-0.212,1.781-0.325,2.649-0.325c5.483,0,11.362,4.453,17.585,9.167c6.233,4.724,12.679,9.606,20.255,11.06
		c8.228,1.582,17.041-0.368,25.562-2.251c7.106-1.57,15.162-3.349,19.01-1.593c4.371,1.999,6.153,7.124,8.564,15.326
		c1.821,6.188,3.704,12.585,8.13,17.336c4.248,4.559,18.417,12.513,19.527,13.155H256.74c1.803-11.146-2.613-22.596-12.016-29.659
		c-13.662-10.258-33.126-7.49-43.388,6.172c-1.198,1.595-1.713,3.6-1.431,5.573c0.28,1.973,1.333,3.755,2.927,4.953l17.26,12.961
		h-56.237c-2.288-14.202-14.566-24.765-29.056-24.765c-1.161,0-2.335,0.068-3.494,0.206c-7.815,0.928-14.801,4.841-19.672,11.023
		c-3.152,4.001-5.158,8.642-5.939,13.536H67.49c1.108-0.64,8.731-4.921,11.387-6.632C82.39,182.067,84.978,179.992,87.013,177.803z
		 M167.004,137.33c4.624,0,8.386,3.762,8.386,8.386c0,4.624-3.763,8.386-8.386,8.386c-4.624,0-8.386-3.762-8.386-8.386
		C158.618,141.092,162.38,137.33,167.004,137.33z M241.897,188.531l-22.518-16.91c5.164-2.398,11.454-1.952,16.316,1.699
		C240.521,176.946,242.8,182.814,241.897,188.531z M121.653,189.64c0.474-1.026,1.071-2.005,1.787-2.915
		c2.386-3.027,5.806-4.943,9.631-5.397c0.574-0.068,1.155-0.102,1.727-0.102c4.557,0,8.668,2.138,11.321,5.513L121.653,189.64z"/>
</g>
<g>
</g>
<g>
</g>
<g>
</g>
<g>
</g>
<g>
</g>
<g>
</g>
<g>
</g>
<g>
</g>
<g>
</g>
<g>
</g>
<g>
</g>
<g>
</g>
<g>
</g>
<g>
</g>
<g>
</g>
</svg>
